<svg id="visual" viewBox="0 0 900 600" width="900" height="600" xmlns="http://www.w3.org/2000/svg" xmlns:xlink="http://www.w3.org/1999/xlink" version="1.1"><rect x="0" y="0" width="900" height="600" fill="#edf2f6"></rect><path d="M0 359L21.5 356.7C43 354.3 86 349.7 128.8 360.5C171.7 371.3 214.3 397.7 257.2 405.5C300 413.3 343 402.7 385.8 394.8C428.7 387 471.3 382 514.2 387.8C557 393.7 600 410.3 642.8 408C685.7 405.7 728.3 384.3 771.2 381C814 377.7 857 392.3 878.5 399.7L900 407L900 601L878.5 601C857 601 814 601 771.2 601C728.3 601 685.7 601 642.8 601C600 601 557 601 514.2 601C471.3 601 428.7 601 385.8 601C343 601 300 601 257.2 601C214.3 601 171.7 601 128.8 601C86 601 43 601 21.5 601L0 601Z" fill="#2a2154"></path><path d="M0 436L21.5 429.5C43 423 86 410 128.8 405.3C171.7 400.7 214.3 404.3 257.2 402C300 399.7 343 391.3 385.8 387.8C428.7 384.3 471.3 385.7 514.2 386C557 386.3 600 385.7 642.8 397.8C685.7 410 728.3 435 771.2 449.8C814 464.7 857 469.3 878.5 471.7L900 474L900 601L878.5 601C857 601 814 601 771.2 601C728.3 601 685.7 601 642.8 601C600 601 557 601 514.2 601C471.3 601 428.7 601 385.8 601C343 601 300 601 257.2 601C214.3 601 171.7 601 128.8 601C86 601 43 601 21.5 601L0 601Z" fill="#3b3464"></path><path d="M0 446L21.5 452.7C43 459.3 86 472.7 128.8 467.8C171.7 463 214.3 440 257.2 442.3C300 444.7 343 472.3 385.8 483.8C428.7 495.3 471.3 490.7 514.2 479.8C557 469 600 452 642.8 439.3C685.7 426.7 728.3 418.3 771.2 427C814 435.7 857 461.3 878.5 474.2L900 487L900 601L878.5 601C857 601 814 601 771.2 601C728.3 601 685.7 601 642.8 601C600 601 557 601 514.2 601C471.3 601 428.7 601 385.8 601C343 601 300 601 257.2 601C214.3 601 171.7 601 128.8 601C86 601 43 601 21.5 601L0 601Z" fill="#4d4873"></path><path d="M0 535L21.5 535C43 535 86 535 128.8 532.8C171.7 530.7 214.3 526.3 257.2 526.8C300 527.3 343 532.7 385.8 530.7C428.7 528.7 471.3 519.3 514.2 506.7C557 494 600 478 642.8 481.8C685.7 485.7 728.3 509.3 771.2 514.3C814 519.3 857 505.7 878.5 498.8L900 492L900 601L878.5 601C857 601 814 601 771.2 601C728.3 601 685.7 601 642.8 601C600 601 557 601 514.2 601C471.3 601 428.7 601 385.8 601C343 601 300 601 257.2 601C214.3 601 171.7 601 128.8 601C86 601 43 601 21.5 601L0 601Z" fill="#5f5c83"></path><path d="M0 563L21.5 560.5C43 558 86 553 128.8 545.8C171.7 538.7 214.3 529.3 257.2 523.7C300 518 343 516 385.8 521.8C428.7 527.7 471.3 541.3 514.2 548.8C557 556.3 600 557.7 642.8 552.5C685.7 547.3 728.3 535.7 771.2 528.8C814 522 857 520 878.5 519L900 518L900 601L878.5 601C857 601 814 601 771.2 601C728.3 601 685.7 601 642.8 601C600 601 557 601 514.2 601C471.3 601 428.7 601 385.8 601C343 601 300 601 257.2 601C214.3 601 171.7 601 128.8 601C86 601 43 601 21.5 601L0 601Z" fill="#727192"></path></svg>